<svg xmlns="http://www.w3.org/2000/svg" width="61.16" height="63.708" viewBox="0 0 61.16 63.708">
  <path id="category_FILL0_wght400_GRAD0_opsz48" d="M17.347,32.191,35.051,4l17.7,28.191ZM53.158,67.708a13.625,13.625,0,0,1-9.979-3.982,13.337,13.337,0,0,1-4.024-9.875,13.337,13.337,0,0,1,4.024-9.875A13.625,13.625,0,0,1,53.158,40a13.625,13.625,0,0,1,9.979,3.982,13.337,13.337,0,0,1,4.024,9.875,13.337,13.337,0,0,1-4.024,9.875A13.625,13.625,0,0,1,53.158,67.708ZM6,65.718V41.508H30.464V65.718ZM53.158,62.93A8.91,8.91,0,0,0,59.676,60.3a9.162,9.162,0,0,0,0-12.9,9.4,9.4,0,0,0-13.037,0,9.162,9.162,0,0,0,0,12.9A8.91,8.91,0,0,0,53.158,62.93ZM10.828,60.939H25.636V46.286H10.828Zm15.21-33.527H44.064L35.051,13ZM35.051,27.413ZM25.636,46.286Zm27.522,7.565Z" transform="translate(-6 -4)" fill="#fff"/>
</svg>
